<svg width="32" height="32" viewBox="0 0 32 32" fill="none" xmlns="http://www.w3.org/2000/svg">
<path fill-rule="evenodd" clip-rule="evenodd" d="M22.6666 7C23.2189 7 23.6666 7.44772 23.6666 8V22.597C23.6666 22.5971 23.6666 22.5969 23.6666 22.597C23.6667 23.1288 23.4903 23.6458 23.1649 24.0663C22.8395 24.487 22.3835 24.7876 21.8687 24.921C21.3539 25.0544 20.8093 25.0131 20.3206 24.8034C19.8319 24.5938 19.4266 24.2278 19.1685 23.763C19.1684 23.7629 19.1685 23.763 19.1685 23.763L11.0831 9.20828C11.0401 9.13079 10.9725 9.06957 10.891 9.03463C10.8095 8.99969 10.7188 8.9928 10.633 9.01503C10.5472 9.03727 10.4712 9.08737 10.4169 9.15748C10.3627 9.22759 10.3333 9.31373 10.3333 9.40236V24C10.3333 24.5523 9.8856 25 9.33331 25C8.78103 25 8.33331 24.5523 8.33331 24L8.33331 9.40297C8.33331 9.40287 8.33331 9.40307 8.33331 9.40297C8.33322 8.87125 8.50971 8.35424 8.83507 7.93368C9.1605 7.51304 9.61643 7.2124 10.1312 7.07899C10.6461 6.94557 11.1906 6.98694 11.6794 7.19658C12.1681 7.4062 12.5733 7.77218 12.8315 8.23705C12.8315 8.23712 12.8314 8.23698 12.8315 8.23705L20.9168 22.7917C20.9598 22.8692 21.0275 22.9304 21.109 22.9654C21.1904 23.0003 21.2812 23.0072 21.367 22.985C21.4528 22.9627 21.5288 22.9126 21.583 22.8425C21.6373 22.7724 21.6667 22.6863 21.6666 22.5976L21.6666 8C21.6666 7.44772 22.1144 7 22.6666 7Z" fill="#263238" fill-opacity="0.4"/>
<path fill-rule="evenodd" clip-rule="evenodd" d="M5.66666 13.3333C5.66666 12.781 6.11437 12.3333 6.66666 12.3333H25.3333C25.8856 12.3333 26.3333 12.781 26.3333 13.3333C26.3333 13.8855 25.8856 14.3333 25.3333 14.3333H6.66666C6.11437 14.3333 5.66666 13.8855 5.66666 13.3333Z" fill="#263238" fill-opacity="0.4"/>
<path fill-rule="evenodd" clip-rule="evenodd" d="M5.66666 18.6667C5.66666 18.1145 6.11437 17.6667 6.66666 17.6667H25.3333C25.8856 17.6667 26.3333 18.1145 26.3333 18.6667C26.3333 19.219 25.8856 19.6667 25.3333 19.6667H6.66666C6.11437 19.6667 5.66666 19.219 5.66666 18.6667Z" fill="#263238" fill-opacity="0.4"/>
</svg>
